<!DOCTYPE svg PUBLIC "-//W3C//DTD SVG 1.1//EN" "http://www.w3.org/Graphics/SVG/1.1/DTD/svg11.dtd">
<!-- Created with matplotlib (http://matplotlib.org/) --><svg xmlns="http://www.w3.org/2000/svg" xmlns:xlink="http://www.w3.org/1999/xlink" height="68pt" version="1.1" viewBox="0 0 302 68" width="302pt" onload="init(evt)">
 <script type="text/ecmascript">
            
            
            function init(evt) {
                if ( window.svgDocument == null ) {
                    svgDocument = evt.target.ownerDocument;
                    }
                }
                
            function ShowTooltip(idx) {
                var tip = svgDocument.getElementById('tooltip_'+idx);
                tip.setAttribute('visibility',"visible")
                }
                
            function HideTooltip(idx) {
                var tip = svgDocument.getElementById('tooltip_'+idx);
                tip.setAttribute('visibility',"hidden")
                }
                
            
            </script><defs>
  <style type="text/css">
*{stroke-linecap:butt;stroke-linejoin:round;stroke-miterlimit:100000;}
  </style>
 </defs>
 <g id="figure_1">
  <g id="patch_1">
   <path d="M 0 68.4  L 302.4 68.4  L 302.4 0  L 0 0  L 0 68.4  z " style="fill:none;"/>
  </g>
  <g id="axes_1">
   <g id="patch_2">
    <path clip-path="url(#p7cb6a32dde)" d="M 22.68 37.62  L 74.088 37.62  L 228.312 37.62  L 279.72 37.62  L 279.72 23.94  L 228.312 23.94  L 74.088 23.94  L 22.68 23.94  z " style="fill:#ffffff;stroke:#ffffff;stroke-linejoin:miter;stroke-width:0.01;"/>
   </g>
   <g id="QuadMesh_1">
    <path clip-path="url(#p7cb6a32dde)" d="M 22.68 37.62  L 74.088 37.62  L 74.088 23.94  L 22.68 23.94  L 22.68 37.62  " style="fill:#640077;stroke:#640077;"/>
    <path clip-path="url(#p7cb6a32dde)" d="M 74.088 37.62  L 125.496 37.62  L 125.496 23.94  L 74.088 23.94  L 74.088 37.62  " style="fill:#646477;stroke:#646477;" onmouseover="ShowTooltip(0)" onmouseout="HideTooltip(0)"/>
    <path clip-path="url(#p7cb6a32dde)" d="M 125.496 37.62  L 176.904 37.62  L 176.904 23.94  L 125.496 23.94  L 125.496 37.62  " style="fill:#c80077;stroke:#c80077;" onmouseover="ShowTooltip(1)" onmouseout="HideTooltip(1)"/>
    <path clip-path="url(#p7cb6a32dde)" d="M 176.904 37.62  L 228.312 37.62  L 228.312 23.94  L 176.904 23.94  L 176.904 37.62  " style="fill:#c86477;stroke:#c86477;" onmouseover="ShowTooltip(2)" onmouseout="HideTooltip(2)"/>
    <path clip-path="url(#p7cb6a32dde)" d="M 228.312 37.62  L 279.72 37.62  L 279.72 23.94  L 228.312 23.94  L 228.312 37.62  " style="fill:#c8c877;stroke:#c8c877;" onmouseover="ShowTooltip(3)" onmouseout="HideTooltip(3)"/>
   </g>
   <g id="patch_3">
    <path d="M 22.68 37.62  L 74.088 37.62  L 228.312 37.62  L 279.72 37.62  L 279.72 23.94  L 228.312 23.94  L 74.088 23.94  L 22.68 23.94  L 22.68 37.62  z " style="fill:none;stroke:#000000;stroke-linejoin:miter;"/>
   </g>
   <g id="matplotlib.axis_1">
    <g id="xtick_1">
     <g id="line2d_1">
      <defs>
       <path d="M 0 0  L 0 4  " id="m699c60d9a9" style="stroke:#000000;stroke-width:0.5;"/>
      </defs>
      <g>
       <use style="stroke:#000000;stroke-width:0.5;" x="48.384" xlink:href="#m699c60d9a9" y="37.62"/>
      </g>
     </g>
     <g id="text_1">
      <!-- 70 -->
      <defs>
       <path d="M 31.78125 66.40625  Q 24.171875 66.40625 20.328125 58.90625  Q 16.5 51.421875 16.5 36.375  Q 16.5 21.390625 20.328125 13.890625  Q 24.171875 6.390625 31.78125 6.390625  Q 39.453125 6.390625 43.28125 13.890625  Q 47.125 21.390625 47.125 36.375  Q 47.125 51.421875 43.28125 58.90625  Q 39.453125 66.40625 31.78125 66.40625  M 31.78125 74.21875  Q 44.046875 74.21875 50.515625 64.515625  Q 56.984375 54.828125 56.984375 36.375  Q 56.984375 17.96875 50.515625 8.265625  Q 44.046875 -1.421875 31.78125 -1.421875  Q 19.53125 -1.421875 13.0625 8.265625  Q 6.59375 17.96875 6.59375 36.375  Q 6.59375 54.828125 13.0625 64.515625  Q 19.53125 74.21875 31.78125 74.21875  " id="BitstreamVeraSans-Roman-30"/>
       <path d="M 8.203125 72.90625  L 55.078125 72.90625  L 55.078125 68.703125  L 28.609375 0  L 18.3125 0  L 43.21875 64.59375  L 8.203125 64.59375  z " id="BitstreamVeraSans-Roman-37"/>
      </defs>
      <g transform="translate(43.294 51.69875)scale(0.08 -0.08)">
       <use xlink:href="#BitstreamVeraSans-Roman-37"/>
       <use x="63.623046875" xlink:href="#BitstreamVeraSans-Roman-30"/>
      </g>
     </g>
    </g>
    <g id="xtick_2">
     <g id="line2d_2">
      <g>
       <use style="stroke:#000000;stroke-width:0.5;" x="151.2" xlink:href="#m699c60d9a9" y="37.62"/>
      </g>
     </g>
     <g id="text_2">
      <!-- 90 -->
      <defs>
       <path d="M 10.984375 1.515625  L 10.984375 10.5  Q 14.703125 8.734375 18.5 7.8125  Q 22.3125 6.890625 25.984375 6.890625  Q 35.75 6.890625 40.890625 13.453125  Q 46.046875 20.015625 46.78125 33.40625  Q 43.953125 29.203125 39.59375 26.953125  Q 35.25 24.703125 29.984375 24.703125  Q 19.046875 24.703125 12.671875 31.3125  Q 6.296875 37.9375 6.296875 49.421875  Q 6.296875 60.640625 12.9375 67.421875  Q 19.578125 74.21875 30.609375 74.21875  Q 43.265625 74.21875 49.921875 64.515625  Q 56.59375 54.828125 56.59375 36.375  Q 56.59375 19.140625 48.40625 8.859375  Q 40.234375 -1.421875 26.421875 -1.421875  Q 22.703125 -1.421875 18.890625 -0.6875  Q 15.09375 0.046875 10.984375 1.515625  M 30.609375 32.421875  Q 37.25 32.421875 41.125 36.953125  Q 45.015625 41.5 45.015625 49.421875  Q 45.015625 57.28125 41.125 61.84375  Q 37.25 66.40625 30.609375 66.40625  Q 23.96875 66.40625 20.09375 61.84375  Q 16.21875 57.28125 16.21875 49.421875  Q 16.21875 41.5 20.09375 36.953125  Q 23.96875 32.421875 30.609375 32.421875  " id="BitstreamVeraSans-Roman-39"/>
      </defs>
      <g transform="translate(146.11 51.69875)scale(0.08 -0.08)">
       <use xlink:href="#BitstreamVeraSans-Roman-39"/>
       <use x="63.623046875" xlink:href="#BitstreamVeraSans-Roman-30"/>
      </g>
     </g>
    </g>
    <g id="xtick_3">
     <g id="line2d_3">
      <g>
       <use style="stroke:#000000;stroke-width:0.5;" x="254.016" xlink:href="#m699c60d9a9" y="37.62"/>
      </g>
     </g>
     <g id="text_3">
      <!-- 110 -->
      <defs>
       <path d="M 12.40625 8.296875  L 28.515625 8.296875  L 28.515625 63.921875  L 10.984375 60.40625  L 10.984375 69.390625  L 28.421875 72.90625  L 38.28125 72.90625  L 38.28125 8.296875  L 54.390625 8.296875  L 54.390625 0  L 12.40625 0  z " id="BitstreamVeraSans-Roman-31"/>
      </defs>
      <g transform="translate(246.381 51.69875)scale(0.08 -0.08)">
       <use xlink:href="#BitstreamVeraSans-Roman-31"/>
       <use x="63.623046875" xlink:href="#BitstreamVeraSans-Roman-31"/>
       <use x="127.24609375" xlink:href="#BitstreamVeraSans-Roman-30"/>
      </g>
     </g>
    </g>
   </g>
   <g id="matplotlib.axis_2"/>
   <g id="tooltip_0" visibility="hidden">
    <g id="patch_4">
     <path d="M 9.858125 28.019688  L 35.501875 28.019688  Q 38.501875 28.019688 38.501875 25.019688  L 38.501875 15.341563  Q 38.501875 12.341563 35.501875 12.341563  L 9.858125 12.341563  Q 6.858125 12.341563 6.858125 15.341563  L 6.858125 25.019688  Q 6.858125 28.019688 9.858125 28.019688  z " style="fill:#ffffe6;stroke:#1a1a1a;stroke-linejoin:miter;"/>
    </g>
    <!-- 70 m -->
    <defs>
     <path id="BitstreamVeraSans-Roman-20"/>
     <path d="M 52 44.1875  Q 55.375 50.25 60.0625 53.125  Q 64.75 56 71.09375 56  Q 79.640625 56 84.28125 50.015625  Q 88.921875 44.046875 88.921875 33.015625  L 88.921875 0  L 79.890625 0  L 79.890625 32.71875  Q 79.890625 40.578125 77.09375 44.375  Q 74.3125 48.1875 68.609375 48.1875  Q 61.625 48.1875 57.5625 43.546875  Q 53.515625 38.921875 53.515625 30.90625  L 53.515625 0  L 44.484375 0  L 44.484375 32.71875  Q 44.484375 40.625 41.703125 44.40625  Q 38.921875 48.1875 33.109375 48.1875  Q 26.21875 48.1875 22.15625 43.53125  Q 18.109375 38.875 18.109375 30.90625  L 18.109375 0  L 9.078125 0  L 9.078125 54.6875  L 18.109375 54.6875  L 18.109375 46.1875  Q 21.1875 51.21875 25.484375 53.609375  Q 29.78125 56 35.6875 56  Q 41.65625 56 45.828125 52.96875  Q 50 49.953125 52 44.1875  " id="BitstreamVeraSans-Roman-6d"/>
    </defs>
    <g transform="translate(9.858125 22.94)scale(0.1 -0.1)">
     <use xlink:href="#BitstreamVeraSans-Roman-37"/>
     <use x="63.623046875" xlink:href="#BitstreamVeraSans-Roman-30"/>
     <use x="127.24609375" xlink:href="#BitstreamVeraSans-Roman-20"/>
     <use x="159.033203125" xlink:href="#BitstreamVeraSans-Roman-6d"/>
    </g>
   </g>
   <g id="tooltip_1" visibility="hidden">
    <g id="patch_5">
     <path d="M 61.466125 28.019688  L 87.109875 28.019688  Q 90.109875 28.019688 90.109875 25.019688  L 90.109875 15.341563  Q 90.109875 12.341563 87.109875 12.341563  L 61.466125 12.341563  Q 58.466125 12.341563 58.466125 15.341563  L 58.466125 25.019688  Q 58.466125 28.019688 61.466125 28.019688  z " style="fill:#ffffe6;stroke:#1a1a1a;stroke-linejoin:miter;"/>
    </g>
    <!-- 80 m -->
    <defs>
     <path d="M 31.78125 34.625  Q 24.75 34.625 20.71875 30.859375  Q 16.703125 27.09375 16.703125 20.515625  Q 16.703125 13.921875 20.71875 10.15625  Q 24.75 6.390625 31.78125 6.390625  Q 38.8125 6.390625 42.859375 10.171875  Q 46.921875 13.96875 46.921875 20.515625  Q 46.921875 27.09375 42.890625 30.859375  Q 38.875 34.625 31.78125 34.625  M 21.921875 38.8125  Q 15.578125 40.375 12.03125 44.71875  Q 8.5 49.078125 8.5 55.328125  Q 8.5 64.0625 14.71875 69.140625  Q 20.953125 74.21875 31.78125 74.21875  Q 42.671875 74.21875 48.875 69.140625  Q 55.078125 64.0625 55.078125 55.328125  Q 55.078125 49.078125 51.53125 44.71875  Q 48 40.375 41.703125 38.8125  Q 48.828125 37.15625 52.796875 32.3125  Q 56.78125 27.484375 56.78125 20.515625  Q 56.78125 9.90625 50.3125 4.234375  Q 43.84375 -1.421875 31.78125 -1.421875  Q 19.734375 -1.421875 13.25 4.234375  Q 6.78125 9.90625 6.78125 20.515625  Q 6.78125 27.484375 10.78125 32.3125  Q 14.796875 37.15625 21.921875 38.8125  M 18.3125 54.390625  Q 18.3125 48.734375 21.84375 45.5625  Q 25.390625 42.390625 31.78125 42.390625  Q 38.140625 42.390625 41.71875 45.5625  Q 45.3125 48.734375 45.3125 54.390625  Q 45.3125 60.0625 41.71875 63.234375  Q 38.140625 66.40625 31.78125 66.40625  Q 25.390625 66.40625 21.84375 63.234375  Q 18.3125 60.0625 18.3125 54.390625  " id="BitstreamVeraSans-Roman-38"/>
    </defs>
    <g transform="translate(61.466125 22.94)scale(0.1 -0.1)">
     <use xlink:href="#BitstreamVeraSans-Roman-38"/>
     <use x="63.623046875" xlink:href="#BitstreamVeraSans-Roman-30"/>
     <use x="127.24609375" xlink:href="#BitstreamVeraSans-Roman-20"/>
     <use x="159.033203125" xlink:href="#BitstreamVeraSans-Roman-6d"/>
    </g>
   </g>
   <g id="tooltip_2" visibility="hidden">
    <g id="patch_6">
     <path d="M 113.074125 28.019688  L 138.717875 28.019688  Q 141.717875 28.019688 141.717875 25.019688  L 141.717875 15.341563  Q 141.717875 12.341563 138.717875 12.341563  L 113.074125 12.341563  Q 110.074125 12.341563 110.074125 15.341563  L 110.074125 25.019688  Q 110.074125 28.019688 113.074125 28.019688  z " style="fill:#ffffe6;stroke:#1a1a1a;stroke-linejoin:miter;"/>
    </g>
    <!-- 90 m -->
    <g transform="translate(113.074125 22.94)scale(0.1 -0.1)">
     <use xlink:href="#BitstreamVeraSans-Roman-39"/>
     <use x="63.623046875" xlink:href="#BitstreamVeraSans-Roman-30"/>
     <use x="127.24609375" xlink:href="#BitstreamVeraSans-Roman-20"/>
     <use x="159.033203125" xlink:href="#BitstreamVeraSans-Roman-6d"/>
    </g>
   </g>
   <g id="tooltip_3" visibility="hidden">
    <g id="patch_7">
     <path d="M 161.500875 28.019688  L 193.507125 28.019688  Q 196.507125 28.019688 196.507125 25.019688  L 196.507125 15.341563  Q 196.507125 12.341563 193.507125 12.341563  L 161.500875 12.341563  Q 158.500875 12.341563 158.500875 15.341563  L 158.500875 25.019688  Q 158.500875 28.019688 161.500875 28.019688  z " style="fill:#ffffe6;stroke:#1a1a1a;stroke-linejoin:miter;"/>
    </g>
    <!-- 100 m -->
    <g transform="translate(161.500875 22.94)scale(0.1 -0.1)">
     <use xlink:href="#BitstreamVeraSans-Roman-31"/>
     <use x="63.623046875" xlink:href="#BitstreamVeraSans-Roman-30"/>
     <use x="127.24609375" xlink:href="#BitstreamVeraSans-Roman-30"/>
     <use x="190.869140625" xlink:href="#BitstreamVeraSans-Roman-20"/>
     <use x="222.65625" xlink:href="#BitstreamVeraSans-Roman-6d"/>
    </g>
   </g>
   <g id="tooltip_4" visibility="hidden">
    <g id="patch_8">
     <path d="M 213.108875 28.019688  L 245.115125 28.019688  Q 248.115125 28.019688 248.115125 25.019688  L 248.115125 15.341563  Q 248.115125 12.341563 245.115125 12.341563  L 213.108875 12.341563  Q 210.108875 12.341563 210.108875 15.341563  L 210.108875 25.019688  Q 210.108875 28.019688 213.108875 28.019688  z " style="fill:#ffffe6;stroke:#1a1a1a;stroke-linejoin:miter;"/>
    </g>
    <!-- 110 m -->
    <g transform="translate(213.108875 22.94)scale(0.1 -0.1)">
     <use xlink:href="#BitstreamVeraSans-Roman-31"/>
     <use x="63.623046875" xlink:href="#BitstreamVeraSans-Roman-31"/>
     <use x="127.24609375" xlink:href="#BitstreamVeraSans-Roman-30"/>
     <use x="190.869140625" xlink:href="#BitstreamVeraSans-Roman-20"/>
     <use x="222.65625" xlink:href="#BitstreamVeraSans-Roman-6d"/>
    </g>
   </g>
  </g>
  <g id="text_4">
   <!-- m -->
   <g transform="translate(146.3296875 64.98)scale(0.1 -0.1)">
    <use xlink:href="#BitstreamVeraSans-Roman-6d"/>
   </g>
  </g>
  <g id="text_5">
   <!-- Discrete Example -->
   <defs>
    <path d="M 22.21875 27.984375  L 2.484375 54.6875  L 21 54.6875  L 32.171875 38.484375  L 43.5 54.6875  L 62.015625 54.6875  L 42.28125 28.078125  L 62.984375 0  L 44.484375 0  L 32.171875 17.28125  L 20.015625 0  L 1.515625 0  z " id="BitstreamVeraSans-Bold-78"/>
    <path d="M 8.40625 54.6875  L 25.875 54.6875  L 25.875 0  L 8.40625 0  z M 8.40625 75.984375  L 25.875 75.984375  L 25.875 61.71875  L 8.40625 61.71875  z " id="BitstreamVeraSans-Bold-69"/>
    <path d="M 27.984375 58.6875  L 27.984375 14.203125  L 34.71875 14.203125  Q 46.234375 14.203125 52.3125 19.921875  Q 58.40625 25.640625 58.40625 36.53125  Q 58.40625 47.359375 52.34375 53.015625  Q 46.296875 58.6875 34.71875 58.6875  z M 9.1875 72.90625  L 29 72.90625  Q 45.609375 72.90625 53.734375 70.53125  Q 61.859375 68.171875 67.671875 62.5  Q 72.796875 57.5625 75.28125 51.109375  Q 77.78125 44.671875 77.78125 36.53125  Q 77.78125 28.265625 75.28125 21.796875  Q 72.796875 15.328125 67.671875 10.40625  Q 61.8125 4.734375 53.609375 2.359375  Q 45.40625 0 29 0  L 9.1875 0  z " id="BitstreamVeraSans-Bold-44"/>
    <path d="M 9.1875 72.90625  L 59.90625 72.90625  L 59.90625 58.6875  L 27.984375 58.6875  L 27.984375 45.125  L 58.015625 45.125  L 58.015625 30.90625  L 27.984375 30.90625  L 27.984375 14.203125  L 60.984375 14.203125  L 60.984375 0  L 9.1875 0  z " id="BitstreamVeraSans-Bold-45"/>
    <path id="BitstreamVeraSans-Bold-20"/>
    <path d="M 52.59375 52.984375  L 52.59375 38.71875  Q 49.03125 41.15625 45.4375 42.328125  Q 41.84375 43.5 37.984375 43.5  Q 30.671875 43.5 26.59375 39.234375  Q 22.515625 34.96875 22.515625 27.296875  Q 22.515625 19.625 26.59375 15.34375  Q 30.671875 11.078125 37.984375 11.078125  Q 42.09375 11.078125 45.78125 12.296875  Q 49.46875 13.53125 52.59375 15.921875  L 52.59375 1.609375  Q 48.484375 0.09375 44.265625 -0.65625  Q 40.046875 -1.421875 35.796875 -1.421875  Q 21 -1.421875 12.640625 6.171875  Q 4.296875 13.765625 4.296875 27.296875  Q 4.296875 40.828125 12.640625 48.40625  Q 21 56 35.796875 56  Q 40.09375 56 44.265625 55.25  Q 48.4375 54.5 52.59375 52.984375  " id="BitstreamVeraSans-Bold-63"/>
    <path d="M 51.125 52.984375  L 51.125 39.703125  Q 45.515625 42.046875 40.28125 43.21875  Q 35.0625 44.390625 30.421875 44.390625  Q 25.4375 44.390625 23.015625 43.140625  Q 20.609375 41.890625 20.609375 39.3125  Q 20.609375 37.203125 22.4375 36.078125  Q 24.265625 34.96875 29 34.421875  L 32.078125 33.984375  Q 45.515625 32.28125 50.140625 28.375  Q 54.78125 24.46875 54.78125 16.109375  Q 54.78125 7.375 48.328125 2.96875  Q 41.890625 -1.421875 29.109375 -1.421875  Q 23.6875 -1.421875 17.890625 -0.5625  Q 12.109375 0.296875 6 2  L 6 15.28125  Q 11.234375 12.75 16.71875 11.46875  Q 22.21875 10.203125 27.875 10.203125  Q 33.015625 10.203125 35.59375 11.609375  Q 38.1875 13.03125 38.1875 15.828125  Q 38.1875 18.171875 36.40625 19.3125  Q 34.625 20.453125 29.296875 21.09375  L 26.21875 21.484375  Q 14.546875 22.953125 9.859375 26.90625  Q 5.171875 30.859375 5.171875 38.921875  Q 5.171875 47.609375 11.125 51.796875  Q 17.09375 56 29.390625 56  Q 34.234375 56 39.546875 55.265625  Q 44.875 54.546875 51.125 52.984375  " id="BitstreamVeraSans-Bold-73"/>
    <path d="M 49.03125 39.796875  Q 46.734375 40.875 44.453125 41.375  Q 42.1875 41.890625 39.890625 41.890625  Q 33.15625 41.890625 29.515625 37.5625  Q 25.875 33.25 25.875 25.203125  L 25.875 0  L 8.40625 0  L 8.40625 54.6875  L 25.875 54.6875  L 25.875 45.703125  Q 29.25 51.078125 33.609375 53.53125  Q 37.984375 56 44.09375 56  Q 44.96875 56 45.984375 55.921875  Q 47.015625 55.859375 48.96875 55.609375  z " id="BitstreamVeraSans-Bold-72"/>
    <path d="M 32.90625 24.609375  Q 27.4375 24.609375 24.671875 22.75  Q 21.921875 20.90625 21.921875 17.28125  Q 21.921875 13.96875 24.140625 12.078125  Q 26.375 10.203125 30.328125 10.203125  Q 35.25 10.203125 38.625 13.734375  Q 42 17.28125 42 22.609375  L 42 24.609375  z M 59.625 31.203125  L 59.625 0  L 42 0  L 42 8.109375  Q 38.484375 3.125 34.078125 0.84375  Q 29.6875 -1.421875 23.390625 -1.421875  Q 14.890625 -1.421875 9.59375 3.53125  Q 4.296875 8.5 4.296875 16.40625  Q 4.296875 26.03125 10.90625 30.515625  Q 17.53125 35.015625 31.6875 35.015625  L 42 35.015625  L 42 36.375  Q 42 40.53125 38.71875 42.453125  Q 35.453125 44.390625 28.515625 44.390625  Q 22.90625 44.390625 18.0625 43.265625  Q 13.234375 42.140625 9.078125 39.890625  L 9.078125 53.21875  Q 14.703125 54.59375 20.359375 55.296875  Q 26.03125 56 31.6875 56  Q 46.484375 56 53.046875 50.171875  Q 59.625 44.34375 59.625 31.203125  " id="BitstreamVeraSans-Bold-61"/>
    <path d="M 27.484375 70.21875  L 27.484375 54.6875  L 45.515625 54.6875  L 45.515625 42.1875  L 27.484375 42.1875  L 27.484375 19  Q 27.484375 15.1875 29 13.84375  Q 30.515625 12.5 35.015625 12.5  L 44 12.5  L 44 0  L 29 0  Q 18.65625 0 14.328125 4.3125  Q 10.015625 8.640625 10.015625 19  L 10.015625 42.1875  L 1.3125 42.1875  L 1.3125 54.6875  L 10.015625 54.6875  L 10.015625 70.21875  z " id="BitstreamVeraSans-Bold-74"/>
    <path d="M 62.984375 27.484375  L 62.984375 22.515625  L 22.125 22.515625  Q 22.75 16.359375 26.5625 13.28125  Q 30.375 10.203125 37.203125 10.203125  Q 42.71875 10.203125 48.5 11.84375  Q 54.296875 13.484375 60.40625 16.796875  L 60.40625 3.328125  Q 54.203125 0.984375 48 -0.21875  Q 41.796875 -1.421875 35.59375 -1.421875  Q 20.75 -1.421875 12.515625 6.125  Q 4.296875 13.671875 4.296875 27.296875  Q 4.296875 40.671875 12.375 48.328125  Q 20.453125 56 34.625 56  Q 47.515625 56 55.25 48.234375  Q 62.984375 40.484375 62.984375 27.484375  M 45.015625 33.296875  Q 45.015625 38.28125 42.109375 41.328125  Q 39.203125 44.390625 34.515625 44.390625  Q 29.4375 44.390625 26.265625 41.53125  Q 23.09375 38.671875 22.3125 33.296875  z " id="BitstreamVeraSans-Bold-65"/>
    <path d="M 25.875 7.90625  L 25.875 -20.796875  L 8.40625 -20.796875  L 8.40625 54.6875  L 25.875 54.6875  L 25.875 46.6875  Q 29.5 51.46875 33.890625 53.734375  Q 38.28125 56 44 56  Q 54.109375 56 60.59375 47.96875  Q 67.09375 39.9375 67.09375 27.296875  Q 67.09375 14.65625 60.59375 6.609375  Q 54.109375 -1.421875 44 -1.421875  Q 38.28125 -1.421875 33.890625 0.84375  Q 29.5 3.125 25.875 7.90625  M 37.5 43.3125  Q 31.890625 43.3125 28.875 39.1875  Q 25.875 35.0625 25.875 27.296875  Q 25.875 19.53125 28.875 15.40625  Q 31.890625 11.28125 37.5 11.28125  Q 43.109375 11.28125 46.0625 15.375  Q 49.03125 19.484375 49.03125 27.296875  Q 49.03125 35.109375 46.0625 39.203125  Q 43.109375 43.3125 37.5 43.3125  " id="BitstreamVeraSans-Bold-70"/>
    <path d="M 8.40625 75.984375  L 25.875 75.984375  L 25.875 0  L 8.40625 0  z " id="BitstreamVeraSans-Bold-6c"/>
    <path d="M 59.078125 45.609375  Q 62.40625 50.6875 66.96875 53.34375  Q 71.53125 56 77 56  Q 86.421875 56 91.359375 50.1875  Q 96.296875 44.390625 96.296875 33.296875  L 96.296875 0  L 78.71875 0  L 78.71875 28.515625  Q 78.765625 29.15625 78.78125 29.828125  Q 78.8125 30.515625 78.8125 31.78125  Q 78.8125 37.59375 77.09375 40.203125  Q 75.390625 42.828125 71.578125 42.828125  Q 66.609375 42.828125 63.890625 38.71875  Q 61.1875 34.625 61.078125 26.859375  L 61.078125 0  L 43.5 0  L 43.5 28.515625  Q 43.5 37.59375 41.9375 40.203125  Q 40.375 42.828125 36.375 42.828125  Q 31.34375 42.828125 28.609375 38.703125  Q 25.875 34.578125 25.875 26.90625  L 25.875 0  L 8.296875 0  L 8.296875 54.6875  L 25.875 54.6875  L 25.875 46.6875  Q 29.109375 51.3125 33.28125 53.65625  Q 37.453125 56 42.484375 56  Q 48.140625 56 52.484375 53.265625  Q 56.84375 50.53125 59.078125 45.609375  " id="BitstreamVeraSans-Bold-6d"/>
   </defs>
   <g transform="translate(102.10703125 10.26)scale(0.1 -0.1)">
    <use xlink:href="#BitstreamVeraSans-Bold-44"/>
    <use x="83.0078125" xlink:href="#BitstreamVeraSans-Bold-69"/>
    <use x="117.28515625" xlink:href="#BitstreamVeraSans-Bold-73"/>
    <use x="176.806640625" xlink:href="#BitstreamVeraSans-Bold-63"/>
    <use x="236.083984375" xlink:href="#BitstreamVeraSans-Bold-72"/>
    <use x="285.400390625" xlink:href="#BitstreamVeraSans-Bold-65"/>
    <use x="353.22265625" xlink:href="#BitstreamVeraSans-Bold-74"/>
    <use x="401.025390625" xlink:href="#BitstreamVeraSans-Bold-65"/>
    <use x="468.84765625" xlink:href="#BitstreamVeraSans-Bold-20"/>
    <use x="503.662109375" xlink:href="#BitstreamVeraSans-Bold-45"/>
    <use x="571.97265625" xlink:href="#BitstreamVeraSans-Bold-78"/>
    <use x="636.474609375" xlink:href="#BitstreamVeraSans-Bold-61"/>
    <use x="703.955078125" xlink:href="#BitstreamVeraSans-Bold-6d"/>
    <use x="808.154296875" xlink:href="#BitstreamVeraSans-Bold-70"/>
    <use x="879.736328125" xlink:href="#BitstreamVeraSans-Bold-6c"/>
    <use x="914.013671875" xlink:href="#BitstreamVeraSans-Bold-65"/>
   </g>
  </g>
 </g>
 <defs>
  <clipPath id="p7cb6a32dde">
   <rect height="13.68" width="257.04" x="22.68" y="23.94"/>
  </clipPath>
 </defs>
</svg>