<!DOCTYPE svg PUBLIC "-//W3C//DTD SVG 1.1//EN" "http://www.w3.org/Graphics/SVG/1.1/DTD/svg11.dtd">
<!-- Created with matplotlib (http://matplotlib.org/) --><svg xmlns="http://www.w3.org/2000/svg" xmlns:xlink="http://www.w3.org/1999/xlink" height="68pt" version="1.1" viewBox="0 0 302 68" width="302pt" onload="init(evt)">
 <script type="text/ecmascript">
            
            
            function init(evt) {
                if ( window.svgDocument == null ) {
                    svgDocument = evt.target.ownerDocument;
                    }
                }
                
            function ShowTooltip(idx) {
                var tip = svgDocument.getElementById('tooltip_'+idx);
                tip.setAttribute('visibility',"visible")
                }
                
            function HideTooltip(idx) {
                var tip = svgDocument.getElementById('tooltip_'+idx);
                tip.setAttribute('visibility',"hidden")
                }
                
            
            </script><defs>
  <style type="text/css">
*{stroke-linecap:butt;stroke-linejoin:round;stroke-miterlimit:100000;}
  </style>
 </defs>
 <g id="figure_1">
  <g id="patch_1">
   <path d="M 0 68.4  L 302.4 68.4  L 302.4 0  L 0 0  L 0 68.4  z " style="fill:none;"/>
  </g>
  <g id="axes_1">
   <g id="patch_2">
    <path clip-path="url(#p684fa9a59f)" d="M 22.68 37.62  L 74.088 37.62  L 228.312 37.62  L 279.72 37.62  L 279.72 23.94  L 228.312 23.94  L 74.088 23.94  L 22.68 23.94  z " style="fill:#ffffff;stroke:#ffffff;stroke-linejoin:miter;stroke-width:0.01;"/>
   </g>
   <g id="QuadMesh_1">
    <path clip-path="url(#p684fa9a59f)" d="M 22.68 37.62  L 74.088 37.62  L 74.088 23.94  L 22.68 23.94  L 22.68 37.62  " style="fill:#320aff;stroke:#320aff;"/>
    <path clip-path="url(#p684fa9a59f)" d="M 74.088 37.62  L 125.496 37.62  L 125.496 23.94  L 74.088 23.94  L 74.088 37.62  " style="fill:#660077;stroke:#660077;" onmouseover="ShowTooltip(0)" onmouseout="HideTooltip(0)"/>
    <path clip-path="url(#p684fa9a59f)" d="M 125.496 37.62  L 176.904 37.62  L 176.904 23.94  L 125.496 23.94  L 125.496 37.62  " style="fill:#666477;stroke:#666477;" onmouseover="ShowTooltip(1)" onmouseout="HideTooltip(1)"/>
    <path clip-path="url(#p684fa9a59f)" d="M 176.904 37.62  L 228.312 37.62  L 228.312 23.94  L 176.904 23.94  L 176.904 37.62  " style="fill:#b70f8d;stroke:#b70f8d;" onmouseover="ShowTooltip(2)" onmouseout="HideTooltip(2)"/>
    <path clip-path="url(#p684fa9a59f)" d="M 228.312 37.62  L 279.72 37.62  L 279.72 23.94  L 228.312 23.94  L 228.312 37.62  " style="fill:#b7648d;stroke:#b7648d;" onmouseover="ShowTooltip(3)" onmouseout="HideTooltip(3)"/>
   </g>
   <g id="patch_3">
    <path d="M 22.68 37.62  L 74.088 37.62  L 228.312 37.62  L 279.72 37.62  L 279.72 23.94  L 228.312 23.94  L 74.088 23.94  L 22.68 23.94  L 22.68 37.62  z " style="fill:none;stroke:#000000;stroke-linejoin:miter;"/>
   </g>
   <g id="matplotlib.axis_1">
    <g id="xtick_1">
     <g id="line2d_1">
      <defs>
       <path d="M 0 0  L 0 4  " id="m7bfcda6db2" style="stroke:#000000;stroke-width:0.5;"/>
      </defs>
      <g>
       <use style="stroke:#000000;stroke-width:0.5;" x="22.68" xlink:href="#m7bfcda6db2" y="37.62"/>
      </g>
     </g>
     <g id="text_1">
      <!-- &lt; 10 -->
      <defs>
       <path d="M 73.1875 49.21875  L 22.796875 31.296875  L 73.1875 13.484375  L 73.1875 4.59375  L 10.59375 27.296875  L 10.59375 35.40625  L 73.1875 58.109375  z " id="BitstreamVeraSans-Roman-3c"/>
       <path d="M 31.78125 66.40625  Q 24.171875 66.40625 20.328125 58.90625  Q 16.5 51.421875 16.5 36.375  Q 16.5 21.390625 20.328125 13.890625  Q 24.171875 6.390625 31.78125 6.390625  Q 39.453125 6.390625 43.28125 13.890625  Q 47.125 21.390625 47.125 36.375  Q 47.125 51.421875 43.28125 58.90625  Q 39.453125 66.40625 31.78125 66.40625  M 31.78125 74.21875  Q 44.046875 74.21875 50.515625 64.515625  Q 56.984375 54.828125 56.984375 36.375  Q 56.984375 17.96875 50.515625 8.265625  Q 44.046875 -1.421875 31.78125 -1.421875  Q 19.53125 -1.421875 13.0625 8.265625  Q 6.59375 17.96875 6.59375 36.375  Q 6.59375 54.828125 13.0625 64.515625  Q 19.53125 74.21875 31.78125 74.21875  " id="BitstreamVeraSans-Roman-30"/>
       <path d="M 12.40625 8.296875  L 28.515625 8.296875  L 28.515625 63.921875  L 10.984375 60.40625  L 10.984375 69.390625  L 28.421875 72.90625  L 38.28125 72.90625  L 38.28125 8.296875  L 54.390625 8.296875  L 54.390625 0  L 12.40625 0  z " id="BitstreamVeraSans-Roman-31"/>
       <path id="BitstreamVeraSans-Roman-20"/>
      </defs>
      <g transform="translate(12.966875 51.69875)scale(0.08 -0.08)">
       <use xlink:href="#BitstreamVeraSans-Roman-3c"/>
       <use x="83.7890625" xlink:href="#BitstreamVeraSans-Roman-20"/>
       <use x="115.576171875" xlink:href="#BitstreamVeraSans-Roman-31"/>
       <use x="179.19921875" xlink:href="#BitstreamVeraSans-Roman-30"/>
      </g>
     </g>
    </g>
    <g id="xtick_2">
     <g id="line2d_2">
      <g>
       <use style="stroke:#000000;stroke-width:0.5;" x="125.496" xlink:href="#m7bfcda6db2" y="37.62"/>
      </g>
     </g>
     <g id="text_2">
      <!-- 20 -->
      <defs>
       <path d="M 19.1875 8.296875  L 53.609375 8.296875  L 53.609375 0  L 7.328125 0  L 7.328125 8.296875  Q 12.9375 14.109375 22.625 23.890625  Q 32.328125 33.6875 34.8125 36.53125  Q 39.546875 41.84375 41.421875 45.53125  Q 43.3125 49.21875 43.3125 52.78125  Q 43.3125 58.59375 39.234375 62.25  Q 35.15625 65.921875 28.609375 65.921875  Q 23.96875 65.921875 18.8125 64.3125  Q 13.671875 62.703125 7.8125 59.421875  L 7.8125 69.390625  Q 13.765625 71.78125 18.9375 73  Q 24.125 74.21875 28.421875 74.21875  Q 39.75 74.21875 46.484375 68.546875  Q 53.21875 62.890625 53.21875 53.421875  Q 53.21875 48.921875 51.53125 44.890625  Q 49.859375 40.875 45.40625 35.40625  Q 44.1875 33.984375 37.640625 27.21875  Q 31.109375 20.453125 19.1875 8.296875  " id="BitstreamVeraSans-Roman-32"/>
      </defs>
      <g transform="translate(120.406 51.69875)scale(0.08 -0.08)">
       <use xlink:href="#BitstreamVeraSans-Roman-32"/>
       <use x="63.623046875" xlink:href="#BitstreamVeraSans-Roman-30"/>
      </g>
     </g>
    </g>
    <g id="xtick_3">
     <g id="line2d_3">
      <g>
       <use style="stroke:#000000;stroke-width:0.5;" x="176.904" xlink:href="#m7bfcda6db2" y="37.62"/>
      </g>
     </g>
     <g id="text_3">
      <!-- 30 -->
      <defs>
       <path d="M 40.578125 39.3125  Q 47.65625 37.796875 51.625 33  Q 55.609375 28.21875 55.609375 21.1875  Q 55.609375 10.40625 48.1875 4.484375  Q 40.765625 -1.421875 27.09375 -1.421875  Q 22.515625 -1.421875 17.65625 -0.515625  Q 12.796875 0.390625 7.625 2.203125  L 7.625 11.71875  Q 11.71875 9.328125 16.59375 8.109375  Q 21.484375 6.890625 26.8125 6.890625  Q 36.078125 6.890625 40.9375 10.546875  Q 45.796875 14.203125 45.796875 21.1875  Q 45.796875 27.640625 41.28125 31.265625  Q 36.765625 34.90625 28.71875 34.90625  L 20.21875 34.90625  L 20.21875 43.015625  L 29.109375 43.015625  Q 36.375 43.015625 40.234375 45.921875  Q 44.09375 48.828125 44.09375 54.296875  Q 44.09375 59.90625 40.109375 62.90625  Q 36.140625 65.921875 28.71875 65.921875  Q 24.65625 65.921875 20.015625 65.03125  Q 15.375 64.15625 9.8125 62.3125  L 9.8125 71.09375  Q 15.4375 72.65625 20.34375 73.4375  Q 25.25 74.21875 29.59375 74.21875  Q 40.828125 74.21875 47.359375 69.109375  Q 53.90625 64.015625 53.90625 55.328125  Q 53.90625 49.265625 50.4375 45.09375  Q 46.96875 40.921875 40.578125 39.3125  " id="BitstreamVeraSans-Roman-33"/>
      </defs>
      <g transform="translate(171.814 51.69875)scale(0.08 -0.08)">
       <use xlink:href="#BitstreamVeraSans-Roman-33"/>
       <use x="63.623046875" xlink:href="#BitstreamVeraSans-Roman-30"/>
      </g>
     </g>
    </g>
    <g id="xtick_4">
     <g id="line2d_4">
      <g>
       <use style="stroke:#000000;stroke-width:0.5;" x="279.72" xlink:href="#m7bfcda6db2" y="37.62"/>
      </g>
     </g>
     <g id="text_4">
      <!-- 50 -->
      <defs>
       <path d="M 10.796875 72.90625  L 49.515625 72.90625  L 49.515625 64.59375  L 19.828125 64.59375  L 19.828125 46.734375  Q 21.96875 47.46875 24.109375 47.828125  Q 26.265625 48.1875 28.421875 48.1875  Q 40.625 48.1875 47.75 41.5  Q 54.890625 34.8125 54.890625 23.390625  Q 54.890625 11.625 47.5625 5.09375  Q 40.234375 -1.421875 26.90625 -1.421875  Q 22.3125 -1.421875 17.546875 -0.640625  Q 12.796875 0.140625 7.71875 1.703125  L 7.71875 11.625  Q 12.109375 9.234375 16.796875 8.0625  Q 21.484375 6.890625 26.703125 6.890625  Q 35.15625 6.890625 40.078125 11.328125  Q 45.015625 15.765625 45.015625 23.390625  Q 45.015625 31 40.078125 35.4375  Q 35.15625 39.890625 26.703125 39.890625  Q 22.75 39.890625 18.8125 39.015625  Q 14.890625 38.140625 10.796875 36.28125  z " id="BitstreamVeraSans-Roman-35"/>
      </defs>
      <g transform="translate(274.63 51.69875)scale(0.08 -0.08)">
       <use xlink:href="#BitstreamVeraSans-Roman-35"/>
       <use x="63.623046875" xlink:href="#BitstreamVeraSans-Roman-30"/>
      </g>
     </g>
    </g>
   </g>
   <g id="matplotlib.axis_2"/>
   <g id="tooltip_0" visibility="hidden">
    <g id="patch_4">
     <path d="M 4.079219 28.019688  L 41.280781 28.019688  Q 44.280781 28.019688 44.280781 25.019688  L 44.280781 15.341563  Q 44.280781 12.341563 41.280781 12.341563  L 4.079219 12.341563  Q 1.079219 12.341563 1.079219 15.341563  L 1.079219 25.019688  Q 1.079219 28.019688 4.079219 28.019688  z " style="fill:#ffffe6;stroke:#1a1a1a;stroke-linejoin:miter;"/>
    </g>
    <!-- &lt; 10 m -->
    <defs>
     <path d="M 52 44.1875  Q 55.375 50.25 60.0625 53.125  Q 64.75 56 71.09375 56  Q 79.640625 56 84.28125 50.015625  Q 88.921875 44.046875 88.921875 33.015625  L 88.921875 0  L 79.890625 0  L 79.890625 32.71875  Q 79.890625 40.578125 77.09375 44.375  Q 74.3125 48.1875 68.609375 48.1875  Q 61.625 48.1875 57.5625 43.546875  Q 53.515625 38.921875 53.515625 30.90625  L 53.515625 0  L 44.484375 0  L 44.484375 32.71875  Q 44.484375 40.625 41.703125 44.40625  Q 38.921875 48.1875 33.109375 48.1875  Q 26.21875 48.1875 22.15625 43.53125  Q 18.109375 38.875 18.109375 30.90625  L 18.109375 0  L 9.078125 0  L 9.078125 54.6875  L 18.109375 54.6875  L 18.109375 46.1875  Q 21.1875 51.21875 25.484375 53.609375  Q 29.78125 56 35.6875 56  Q 41.65625 56 45.828125 52.96875  Q 50 49.953125 52 44.1875  " id="BitstreamVeraSans-Roman-6d"/>
    </defs>
    <g transform="translate(4.07921875 22.94)scale(0.1 -0.1)">
     <use xlink:href="#BitstreamVeraSans-Roman-3c"/>
     <use x="83.7890625" xlink:href="#BitstreamVeraSans-Roman-20"/>
     <use x="115.576171875" xlink:href="#BitstreamVeraSans-Roman-31"/>
     <use x="179.19921875" xlink:href="#BitstreamVeraSans-Roman-30"/>
     <use x="242.822265625" xlink:href="#BitstreamVeraSans-Roman-20"/>
     <use x="274.609375" xlink:href="#BitstreamVeraSans-Roman-6d"/>
    </g>
   </g>
   <g id="tooltip_1" visibility="hidden">
    <g id="patch_5">
     <path d="M 50.121594 28.019688  L 98.454406 28.019688  Q 101.454406 28.019688 101.454406 25.019688  L 101.454406 15.341563  Q 101.454406 12.341563 98.454406 12.341563  L 50.121594 12.341563  Q 47.121594 12.341563 47.121594 15.341563  L 47.121594 25.019688  Q 47.121594 28.019688 50.121594 28.019688  z " style="fill:#ffffe6;stroke:#1a1a1a;stroke-linejoin:miter;"/>
    </g>
    <!-- 10 - 20 m -->
    <defs>
     <path d="M 4.890625 31.390625  L 31.203125 31.390625  L 31.203125 23.390625  L 4.890625 23.390625  z " id="BitstreamVeraSans-Roman-2d"/>
    </defs>
    <g transform="translate(50.12159375 22.94)scale(0.1 -0.1)">
     <use xlink:href="#BitstreamVeraSans-Roman-31"/>
     <use x="63.623046875" xlink:href="#BitstreamVeraSans-Roman-30"/>
     <use x="127.24609375" xlink:href="#BitstreamVeraSans-Roman-20"/>
     <use x="159.033203125" xlink:href="#BitstreamVeraSans-Roman-2d"/>
     <use x="195.1171875" xlink:href="#BitstreamVeraSans-Roman-20"/>
     <use x="226.904296875" xlink:href="#BitstreamVeraSans-Roman-32"/>
     <use x="290.52734375" xlink:href="#BitstreamVeraSans-Roman-30"/>
     <use x="354.150390625" xlink:href="#BitstreamVeraSans-Roman-20"/>
     <use x="385.9375" xlink:href="#BitstreamVeraSans-Roman-6d"/>
    </g>
   </g>
   <g id="tooltip_2" visibility="hidden">
    <g id="patch_6">
     <path d="M 101.729594 28.019688  L 150.062406 28.019688  Q 153.062406 28.019688 153.062406 25.019688  L 153.062406 15.341563  Q 153.062406 12.341563 150.062406 12.341563  L 101.729594 12.341563  Q 98.729594 12.341563 98.729594 15.341563  L 98.729594 25.019688  Q 98.729594 28.019688 101.729594 28.019688  z " style="fill:#ffffe6;stroke:#1a1a1a;stroke-linejoin:miter;"/>
    </g>
    <!-- 20 - 30 m -->
    <g transform="translate(101.72959375 22.94)scale(0.1 -0.1)">
     <use xlink:href="#BitstreamVeraSans-Roman-32"/>
     <use x="63.623046875" xlink:href="#BitstreamVeraSans-Roman-30"/>
     <use x="127.24609375" xlink:href="#BitstreamVeraSans-Roman-20"/>
     <use x="159.033203125" xlink:href="#BitstreamVeraSans-Roman-2d"/>
     <use x="195.1171875" xlink:href="#BitstreamVeraSans-Roman-20"/>
     <use x="226.904296875" xlink:href="#BitstreamVeraSans-Roman-33"/>
     <use x="290.52734375" xlink:href="#BitstreamVeraSans-Roman-30"/>
     <use x="354.150390625" xlink:href="#BitstreamVeraSans-Roman-20"/>
     <use x="385.9375" xlink:href="#BitstreamVeraSans-Roman-6d"/>
    </g>
   </g>
   <g id="tooltip_3" visibility="hidden">
    <g id="patch_7">
     <path d="M 153.337594 28.019688  L 201.670406 28.019688  Q 204.670406 28.019688 204.670406 25.019688  L 204.670406 15.341563  Q 204.670406 12.341563 201.670406 12.341563  L 153.337594 12.341563  Q 150.337594 12.341563 150.337594 15.341563  L 150.337594 25.019688  Q 150.337594 28.019688 153.337594 28.019688  z " style="fill:#ffffe6;stroke:#1a1a1a;stroke-linejoin:miter;"/>
    </g>
    <!-- 30 - 40 m -->
    <defs>
     <path d="M 37.796875 64.3125  L 12.890625 25.390625  L 37.796875 25.390625  z M 35.203125 72.90625  L 47.609375 72.90625  L 47.609375 25.390625  L 58.015625 25.390625  L 58.015625 17.1875  L 47.609375 17.1875  L 47.609375 0  L 37.796875 0  L 37.796875 17.1875  L 4.890625 17.1875  L 4.890625 26.703125  z " id="BitstreamVeraSans-Roman-34"/>
    </defs>
    <g transform="translate(153.33759375 22.94)scale(0.1 -0.1)">
     <use xlink:href="#BitstreamVeraSans-Roman-33"/>
     <use x="63.623046875" xlink:href="#BitstreamVeraSans-Roman-30"/>
     <use x="127.24609375" xlink:href="#BitstreamVeraSans-Roman-20"/>
     <use x="159.033203125" xlink:href="#BitstreamVeraSans-Roman-2d"/>
     <use x="195.1171875" xlink:href="#BitstreamVeraSans-Roman-20"/>
     <use x="226.904296875" xlink:href="#BitstreamVeraSans-Roman-34"/>
     <use x="290.52734375" xlink:href="#BitstreamVeraSans-Roman-30"/>
     <use x="354.150390625" xlink:href="#BitstreamVeraSans-Roman-20"/>
     <use x="385.9375" xlink:href="#BitstreamVeraSans-Roman-6d"/>
    </g>
   </g>
   <g id="tooltip_4" visibility="hidden">
    <g id="patch_8">
     <path d="M 204.945594 28.019688  L 253.278406 28.019688  Q 256.278406 28.019688 256.278406 25.019688  L 256.278406 15.341563  Q 256.278406 12.341563 253.278406 12.341563  L 204.945594 12.341563  Q 201.945594 12.341563 201.945594 15.341563  L 201.945594 25.019688  Q 201.945594 28.019688 204.945594 28.019688  z " style="fill:#ffffe6;stroke:#1a1a1a;stroke-linejoin:miter;"/>
    </g>
    <!-- 40 - 50 m -->
    <g transform="translate(204.94559375 22.94)scale(0.1 -0.1)">
     <use xlink:href="#BitstreamVeraSans-Roman-34"/>
     <use x="63.623046875" xlink:href="#BitstreamVeraSans-Roman-30"/>
     <use x="127.24609375" xlink:href="#BitstreamVeraSans-Roman-20"/>
     <use x="159.033203125" xlink:href="#BitstreamVeraSans-Roman-2d"/>
     <use x="195.1171875" xlink:href="#BitstreamVeraSans-Roman-20"/>
     <use x="226.904296875" xlink:href="#BitstreamVeraSans-Roman-35"/>
     <use x="290.52734375" xlink:href="#BitstreamVeraSans-Roman-30"/>
     <use x="354.150390625" xlink:href="#BitstreamVeraSans-Roman-20"/>
     <use x="385.9375" xlink:href="#BitstreamVeraSans-Roman-6d"/>
    </g>
   </g>
  </g>
  <g id="text_5">
   <!-- m -->
   <g transform="translate(146.3296875 64.98)scale(0.1 -0.1)">
    <use xlink:href="#BitstreamVeraSans-Roman-6d"/>
   </g>
  </g>
  <g id="text_6">
   <!-- Continuous Example -->
   <defs>
    <path d="M 22.21875 27.984375  L 2.484375 54.6875  L 21 54.6875  L 32.171875 38.484375  L 43.5 54.6875  L 62.015625 54.6875  L 42.28125 28.078125  L 62.984375 0  L 44.484375 0  L 32.171875 17.28125  L 20.015625 0  L 1.515625 0  z " id="BitstreamVeraSans-Bold-78"/>
    <path d="M 8.40625 54.6875  L 25.875 54.6875  L 25.875 0  L 8.40625 0  z M 8.40625 75.984375  L 25.875 75.984375  L 25.875 61.71875  L 8.40625 61.71875  z " id="BitstreamVeraSans-Bold-69"/>
    <path d="M 9.1875 72.90625  L 59.90625 72.90625  L 59.90625 58.6875  L 27.984375 58.6875  L 27.984375 45.125  L 58.015625 45.125  L 58.015625 30.90625  L 27.984375 30.90625  L 27.984375 14.203125  L 60.984375 14.203125  L 60.984375 0  L 9.1875 0  z " id="BitstreamVeraSans-Bold-45"/>
    <path id="BitstreamVeraSans-Bold-20"/>
    <path d="M 25.875 7.90625  L 25.875 -20.796875  L 8.40625 -20.796875  L 8.40625 54.6875  L 25.875 54.6875  L 25.875 46.6875  Q 29.5 51.46875 33.890625 53.734375  Q 38.28125 56 44 56  Q 54.109375 56 60.59375 47.96875  Q 67.09375 39.9375 67.09375 27.296875  Q 67.09375 14.65625 60.59375 6.609375  Q 54.109375 -1.421875 44 -1.421875  Q 38.28125 -1.421875 33.890625 0.84375  Q 29.5 3.125 25.875 7.90625  M 37.5 43.3125  Q 31.890625 43.3125 28.875 39.1875  Q 25.875 35.0625 25.875 27.296875  Q 25.875 19.53125 28.875 15.40625  Q 31.890625 11.28125 37.5 11.28125  Q 43.109375 11.28125 46.0625 15.375  Q 49.03125 19.484375 49.03125 27.296875  Q 49.03125 35.109375 46.0625 39.203125  Q 43.109375 43.3125 37.5 43.3125  " id="BitstreamVeraSans-Bold-70"/>
    <path d="M 51.125 52.984375  L 51.125 39.703125  Q 45.515625 42.046875 40.28125 43.21875  Q 35.0625 44.390625 30.421875 44.390625  Q 25.4375 44.390625 23.015625 43.140625  Q 20.609375 41.890625 20.609375 39.3125  Q 20.609375 37.203125 22.4375 36.078125  Q 24.265625 34.96875 29 34.421875  L 32.078125 33.984375  Q 45.515625 32.28125 50.140625 28.375  Q 54.78125 24.46875 54.78125 16.109375  Q 54.78125 7.375 48.328125 2.96875  Q 41.890625 -1.421875 29.109375 -1.421875  Q 23.6875 -1.421875 17.890625 -0.5625  Q 12.109375 0.296875 6 2  L 6 15.28125  Q 11.234375 12.75 16.71875 11.46875  Q 22.21875 10.203125 27.875 10.203125  Q 33.015625 10.203125 35.59375 11.609375  Q 38.1875 13.03125 38.1875 15.828125  Q 38.1875 18.171875 36.40625 19.3125  Q 34.625 20.453125 29.296875 21.09375  L 26.21875 21.484375  Q 14.546875 22.953125 9.859375 26.90625  Q 5.171875 30.859375 5.171875 38.921875  Q 5.171875 47.609375 11.125 51.796875  Q 17.09375 56 29.390625 56  Q 34.234375 56 39.546875 55.265625  Q 44.875 54.546875 51.125 52.984375  " id="BitstreamVeraSans-Bold-73"/>
    <path d="M 32.90625 24.609375  Q 27.4375 24.609375 24.671875 22.75  Q 21.921875 20.90625 21.921875 17.28125  Q 21.921875 13.96875 24.140625 12.078125  Q 26.375 10.203125 30.328125 10.203125  Q 35.25 10.203125 38.625 13.734375  Q 42 17.28125 42 22.609375  L 42 24.609375  z M 59.625 31.203125  L 59.625 0  L 42 0  L 42 8.109375  Q 38.484375 3.125 34.078125 0.84375  Q 29.6875 -1.421875 23.390625 -1.421875  Q 14.890625 -1.421875 9.59375 3.53125  Q 4.296875 8.5 4.296875 16.40625  Q 4.296875 26.03125 10.90625 30.515625  Q 17.53125 35.015625 31.6875 35.015625  L 42 35.015625  L 42 36.375  Q 42 40.53125 38.71875 42.453125  Q 35.453125 44.390625 28.515625 44.390625  Q 22.90625 44.390625 18.0625 43.265625  Q 13.234375 42.140625 9.078125 39.890625  L 9.078125 53.21875  Q 14.703125 54.59375 20.359375 55.296875  Q 26.03125 56 31.6875 56  Q 46.484375 56 53.046875 50.171875  Q 59.625 44.34375 59.625 31.203125  " id="BitstreamVeraSans-Bold-61"/>
    <path d="M 7.8125 21.296875  L 7.8125 54.6875  L 25.390625 54.6875  L 25.390625 49.21875  Q 25.390625 44.78125 25.34375 38.0625  Q 25.296875 31.34375 25.296875 29.109375  Q 25.296875 22.515625 25.640625 19.609375  Q 25.984375 16.703125 26.8125 15.375  Q 27.875 13.671875 29.609375 12.734375  Q 31.34375 11.8125 33.59375 11.8125  Q 39.0625 11.8125 42.1875 16.015625  Q 45.3125 20.21875 45.3125 27.6875  L 45.3125 54.6875  L 62.796875 54.6875  L 62.796875 0  L 45.3125 0  L 45.3125 7.90625  Q 41.359375 3.125 36.9375 0.84375  Q 32.515625 -1.421875 27.203125 -1.421875  Q 17.71875 -1.421875 12.765625 4.390625  Q 7.8125 10.203125 7.8125 21.296875  " id="BitstreamVeraSans-Bold-75"/>
    <path d="M 27.484375 70.21875  L 27.484375 54.6875  L 45.515625 54.6875  L 45.515625 42.1875  L 27.484375 42.1875  L 27.484375 19  Q 27.484375 15.1875 29 13.84375  Q 30.515625 12.5 35.015625 12.5  L 44 12.5  L 44 0  L 29 0  Q 18.65625 0 14.328125 4.3125  Q 10.015625 8.640625 10.015625 19  L 10.015625 42.1875  L 1.3125 42.1875  L 1.3125 54.6875  L 10.015625 54.6875  L 10.015625 70.21875  z " id="BitstreamVeraSans-Bold-74"/>
    <path d="M 62.984375 27.484375  L 62.984375 22.515625  L 22.125 22.515625  Q 22.75 16.359375 26.5625 13.28125  Q 30.375 10.203125 37.203125 10.203125  Q 42.71875 10.203125 48.5 11.84375  Q 54.296875 13.484375 60.40625 16.796875  L 60.40625 3.328125  Q 54.203125 0.984375 48 -0.21875  Q 41.796875 -1.421875 35.59375 -1.421875  Q 20.75 -1.421875 12.515625 6.125  Q 4.296875 13.671875 4.296875 27.296875  Q 4.296875 40.671875 12.375 48.328125  Q 20.453125 56 34.625 56  Q 47.515625 56 55.25 48.234375  Q 62.984375 40.484375 62.984375 27.484375  M 45.015625 33.296875  Q 45.015625 38.28125 42.109375 41.328125  Q 39.203125 44.390625 34.515625 44.390625  Q 29.4375 44.390625 26.265625 41.53125  Q 23.09375 38.671875 22.3125 33.296875  z " id="BitstreamVeraSans-Bold-65"/>
    <path d="M 67 4  Q 61.8125 1.3125 56.203125 -0.046875  Q 50.59375 -1.421875 44.484375 -1.421875  Q 26.265625 -1.421875 15.625 8.765625  Q 4.984375 18.953125 4.984375 36.375  Q 4.984375 53.859375 15.625 64.03125  Q 26.265625 74.21875 44.484375 74.21875  Q 50.59375 74.21875 56.203125 72.84375  Q 61.8125 71.484375 67 68.796875  L 67 53.71875  Q 61.765625 57.28125 56.6875 58.9375  Q 51.609375 60.59375 46 60.59375  Q 35.9375 60.59375 30.171875 54.140625  Q 24.421875 47.703125 24.421875 36.375  Q 24.421875 25.09375 30.171875 18.640625  Q 35.9375 12.203125 46 12.203125  Q 51.609375 12.203125 56.6875 13.859375  Q 61.765625 15.53125 67 19.09375  z " id="BitstreamVeraSans-Bold-43"/>
    <path d="M 8.40625 75.984375  L 25.875 75.984375  L 25.875 0  L 8.40625 0  z " id="BitstreamVeraSans-Bold-6c"/>
    <path d="M 34.421875 43.5  Q 28.609375 43.5 25.5625 39.328125  Q 22.515625 35.15625 22.515625 27.296875  Q 22.515625 19.4375 25.5625 15.25  Q 28.609375 11.078125 34.421875 11.078125  Q 40.140625 11.078125 43.15625 15.25  Q 46.1875 19.4375 46.1875 27.296875  Q 46.1875 35.15625 43.15625 39.328125  Q 40.140625 43.5 34.421875 43.5  M 34.421875 56  Q 48.53125 56 56.46875 48.375  Q 64.40625 40.765625 64.40625 27.296875  Q 64.40625 13.8125 56.46875 6.1875  Q 48.53125 -1.421875 34.421875 -1.421875  Q 20.265625 -1.421875 12.28125 6.1875  Q 4.296875 13.8125 4.296875 27.296875  Q 4.296875 40.765625 12.28125 48.375  Q 20.265625 56 34.421875 56  " id="BitstreamVeraSans-Bold-6f"/>
    <path d="M 59.078125 45.609375  Q 62.40625 50.6875 66.96875 53.34375  Q 71.53125 56 77 56  Q 86.421875 56 91.359375 50.1875  Q 96.296875 44.390625 96.296875 33.296875  L 96.296875 0  L 78.71875 0  L 78.71875 28.515625  Q 78.765625 29.15625 78.78125 29.828125  Q 78.8125 30.515625 78.8125 31.78125  Q 78.8125 37.59375 77.09375 40.203125  Q 75.390625 42.828125 71.578125 42.828125  Q 66.609375 42.828125 63.890625 38.71875  Q 61.1875 34.625 61.078125 26.859375  L 61.078125 0  L 43.5 0  L 43.5 28.515625  Q 43.5 37.59375 41.9375 40.203125  Q 40.375 42.828125 36.375 42.828125  Q 31.34375 42.828125 28.609375 38.703125  Q 25.875 34.578125 25.875 26.90625  L 25.875 0  L 8.296875 0  L 8.296875 54.6875  L 25.875 54.6875  L 25.875 46.6875  Q 29.109375 51.3125 33.28125 53.65625  Q 37.453125 56 42.484375 56  Q 48.140625 56 52.484375 53.265625  Q 56.84375 50.53125 59.078125 45.609375  " id="BitstreamVeraSans-Bold-6d"/>
    <path d="M 63.375 33.296875  L 63.375 0  L 45.796875 0  L 45.796875 5.421875  L 45.796875 25.484375  Q 45.796875 32.5625 45.484375 35.25  Q 45.171875 37.9375 44.390625 39.203125  Q 43.359375 40.921875 41.59375 41.875  Q 39.84375 42.828125 37.59375 42.828125  Q 32.125 42.828125 29 38.59375  Q 25.875 34.375 25.875 26.90625  L 25.875 0  L 8.40625 0  L 8.40625 54.6875  L 25.875 54.6875  L 25.875 46.6875  Q 29.828125 51.46875 34.265625 53.734375  Q 38.71875 56 44.09375 56  Q 53.5625 56 58.46875 50.1875  Q 63.375 44.390625 63.375 33.296875  " id="BitstreamVeraSans-Bold-6e"/>
   </defs>
   <g transform="translate(93.69296875 10.26)scale(0.1 -0.1)">
    <use xlink:href="#BitstreamVeraSans-Bold-43"/>
    <use x="73.388671875" xlink:href="#BitstreamVeraSans-Bold-6f"/>
    <use x="142.08984375" xlink:href="#BitstreamVeraSans-Bold-6e"/>
    <use x="213.28125" xlink:href="#BitstreamVeraSans-Bold-74"/>
    <use x="261.083984375" xlink:href="#BitstreamVeraSans-Bold-69"/>
    <use x="295.361328125" xlink:href="#BitstreamVeraSans-Bold-6e"/>
    <use x="366.552734375" xlink:href="#BitstreamVeraSans-Bold-75"/>
    <use x="437.744140625" xlink:href="#BitstreamVeraSans-Bold-6f"/>
    <use x="506.4453125" xlink:href="#BitstreamVeraSans-Bold-75"/>
    <use x="577.63671875" xlink:href="#BitstreamVeraSans-Bold-73"/>
    <use x="637.158203125" xlink:href="#BitstreamVeraSans-Bold-20"/>
    <use x="671.97265625" xlink:href="#BitstreamVeraSans-Bold-45"/>
    <use x="740.283203125" xlink:href="#BitstreamVeraSans-Bold-78"/>
    <use x="804.78515625" xlink:href="#BitstreamVeraSans-Bold-61"/>
    <use x="872.265625" xlink:href="#BitstreamVeraSans-Bold-6d"/>
    <use x="976.46484375" xlink:href="#BitstreamVeraSans-Bold-70"/>
    <use x="1048.046875" xlink:href="#BitstreamVeraSans-Bold-6c"/>
    <use x="1082.32421875" xlink:href="#BitstreamVeraSans-Bold-65"/>
   </g>
  </g>
 </g>
 <defs>
  <clipPath id="p684fa9a59f">
   <rect height="13.68" width="257.04" x="22.68" y="23.94"/>
  </clipPath>
 </defs>
</svg>